<svg width="16" height="16" viewBox="0 0 16 16" fill="none" xmlns="http://www.w3.org/2000/svg">
<path d="M11.9166 5.33341C11.9166 7.49653 10.163 9.25008 7.99992 9.25008C5.8368 9.25008 4.08325 7.49653 4.08325 5.33341C4.08325 3.1703 5.8368 1.41675 7.99992 1.41675C10.163 1.41675 11.9166 3.1703 11.9166 5.33341Z" stroke="#2CB74B" stroke-width="1.5" stroke-linecap="round" stroke-linejoin="round"/>
<mask id="path-2-inside-1_64_531" fill="white">
<path d="M5.47341 9.26008L4.66675 15.3334L8.00008 13.3334L11.3334 15.3334L10.5267 9.25342"/>
</mask>
<path d="M6.96036 9.45758C7.06943 8.63637 6.49213 7.88222 5.67091 7.77314C4.8497 7.66407 4.09555 8.24137 3.98647 9.06259L6.96036 9.45758ZM4.66675 15.3334L3.17981 15.1359C3.10397 15.7069 3.36178 16.2709 3.84319 16.5871C4.3246 16.9034 4.94458 16.916 5.43849 16.6197L4.66675 15.3334ZM8.00008 13.3334L8.77182 12.0472C8.2968 11.7622 7.70336 11.7622 7.22834 12.0472L8.00008 13.3334ZM11.3334 15.3334L10.5617 16.6197C11.0555 16.916 11.6755 16.9034 12.1569 16.5872C12.6383 16.271 12.8961 15.7071 12.8204 15.1361L11.3334 15.3334ZM12.0137 9.05613C11.9048 8.2349 11.1507 7.65749 10.3295 7.76645C9.50823 7.87541 8.93082 8.62947 9.03978 9.4507L12.0137 9.05613ZM3.98647 9.06259L3.17981 15.1359L6.15369 15.5309L6.96036 9.45758L3.98647 9.06259ZM5.43849 16.6197L8.77182 14.6197L7.22834 12.0472L3.895 14.0472L5.43849 16.6197ZM7.22834 14.6197L10.5617 16.6197L12.1052 14.0472L8.77182 12.0472L7.22834 14.6197ZM12.8204 15.1361L12.0137 9.05613L9.03978 9.4507L9.84644 15.5307L12.8204 15.1361Z" fill="#2CB74B" mask="url(#path-2-inside-1_64_531)"/>
</svg>
