<svg width="31" height="24" viewBox="0 0 31 24" fill="none" xmlns="http://www.w3.org/2000/svg">
<path d="M7.83883 15.8815H10.3576C10.8915 15.8848 11.3932 15.6267 11.6995 15.1912C12.0058 14.7557 12.0776 14.1984 11.892 13.6999C11.7061 13.2013 11.2864 12.8256 10.7689 12.6944L8.25034 12.0396C7.76251 11.9116 7.24287 12.0163 6.84348 12.3228C6.44388 12.6295 6.21001 13.1033 6.21022 13.6052V14.2599C6.21022 14.69 6.3818 15.1024 6.68731 15.4065C6.99262 15.7106 7.407 15.8815 7.83883 15.8815ZM7.33224 13.6052C7.33224 13.449 7.40526 13.3015 7.5296 13.206C7.65395 13.1106 7.81578 13.078 7.96766 13.1178L10.4862 13.7725C10.7381 13.8324 10.904 14.0716 10.871 14.3274C10.8378 14.5829 10.6164 14.7725 10.3576 14.7672H7.83883C7.55987 14.7656 7.33384 14.5408 7.33244 14.2628L7.33224 13.6052ZM22.7467 12.0396L20.228 12.6944C19.7102 12.8256 19.2902 13.2018 19.1046 13.7007C18.9192 14.1995 18.9916 14.7575 19.2987 15.1928C19.6055 15.6283 20.1078 15.8856 20.6423 15.8815H23.161C23.5919 15.8807 24.0051 15.7099 24.3098 15.4065C24.6147 15.1032 24.786 14.692 24.7868 14.2628V13.6052C24.787 13.1033 24.5532 12.6295 24.1535 12.3228C23.7541 12.0163 23.2344 11.9116 22.7467 12.0396ZM23.4687 13.2068C23.5944 13.3023 23.668 13.4507 23.6675 13.6081V14.2628C23.6659 14.5408 23.44 14.7656 23.1608 14.7672H20.6423C20.3835 14.7727 20.1619 14.5829 20.129 14.3274C20.0957 14.0716 20.2616 13.8324 20.5134 13.7725L23.032 13.1179C23.074 13.1068 23.1173 13.1011 23.1608 13.1011C23.2724 13.1016 23.3807 13.1386 23.4687 13.2068ZM8.22223 9.95849H22.7746C22.9603 9.95869 23.1338 9.86715 23.2382 9.71421C23.3424 9.56127 23.3637 9.36674 23.295 9.19512C22.822 8.0056 21.8957 5.81018 21.42 5.13313C21.0786 4.64554 20.5804 4.38648 19.724 4.23609C18.3258 4.02737 16.9119 3.93856 15.4982 3.97141C14.0885 3.93856 12.6784 4.02601 11.2837 4.23317C10.4189 4.38359 9.92913 4.64264 9.58766 5.13315C9.11467 5.81019 8.1884 8.00542 7.71264 9.19514C7.64471 9.365 7.66482 9.55719 7.76633 9.70955C7.86803 9.86191 8.03854 9.95499 8.22223 9.95849ZM10.4974 5.7795C10.5813 5.65687 10.7102 5.47302 11.4686 5.34203C12.8021 5.14265 14.1503 5.05695 15.4986 5.08571C16.8437 5.05442 18.1891 5.13741 19.52 5.33369C20.2757 5.46467 20.4044 5.64851 20.4883 5.76823C21.0423 6.75427 21.5248 7.77842 21.9323 8.83293H9.06203C9.47003 7.77961 9.95257 6.75646 10.5062 5.77115L10.4974 5.7795ZM3.4116 11.5604C2.91947 12.5061 2.67508 13.5602 2.70063 14.625V21.1611C2.7014 21.6706 2.90521 22.1592 3.26713 22.5195C3.62905 22.8799 4.11978 23.0827 4.63166 23.0833H6.40318C6.91502 23.0827 7.40576 22.8799 7.76771 22.5195C8.12983 22.1593 8.33342 21.6707 8.33422 21.1611V20.693H22.6627V21.1611C22.6635 21.6706 22.8671 22.1592 23.2292 22.5195C23.5911 22.8799 24.0819 23.0827 24.5938 23.0833H26.368C26.8798 23.0827 27.3706 22.8799 27.7325 22.5195C28.0947 22.1593 28.2982 21.6707 28.299 21.1611V14.6419C28.324 13.5773 28.0796 12.5234 27.5883 11.5773C28.0386 11.4994 28.4474 11.267 28.7439 10.9205C29.0403 10.574 29.2055 10.1352 29.2112 9.68005V8.67709C29.1994 8.18522 28.9981 7.71686 28.6492 7.36841C28.3002 7.01997 27.8303 6.81822 27.3363 6.80483H26.8045C26.3528 6.81417 25.9112 6.9399 25.5229 7.16981C25.0472 6.03042 24.2888 4.31131 23.7459 3.53123C22.7106 2.05197 21.2274 1.64227 20.2115 1.46407C18.6527 1.2225 17.0756 1.11718 15.4984 1.14925C13.9253 1.11504 12.352 1.21746 10.797 1.45571C9.7755 1.63411 8.29522 2.04088 7.25962 3.52288C6.71675 4.30296 5.95835 6.03018 5.4826 7.16145C5.09239 6.93117 4.64864 6.80543 4.19518 6.79649H3.6718C3.17441 6.80718 2.70041 7.00889 2.34884 7.35926C1.99747 7.70984 1.79564 8.18187 1.78564 8.67704V9.68C1.79521 10.1326 1.9627 10.5677 2.25942 10.9109C2.55594 11.2539 2.96338 11.4834 3.4116 11.5604ZM2.90502 8.71867C2.90502 8.5084 2.98857 8.30648 3.13751 8.15725C3.28626 8.008 3.4885 7.92346 3.69971 7.9219H4.18111C4.6213 7.946 5.03555 8.13645 5.33969 8.45398C5.47439 8.57933 5.66257 8.63082 5.84254 8.59118C6.02271 8.55173 6.17166 8.42638 6.24096 8.25614C7.02179 6.32539 7.7634 4.75966 8.1747 4.17176C8.96098 3.05746 10.0889 2.72299 10.9732 2.56693C12.4651 2.34441 13.9736 2.25133 15.4816 2.28864C16.9896 2.25133 18.4982 2.34461 19.99 2.56712C20.8856 2.72318 22.0133 3.04635 22.7885 4.17195C23.1998 4.76254 23.9414 6.32559 24.7222 8.25633C24.7916 8.42657 24.9405 8.55173 25.1207 8.59118C25.3006 8.63082 25.4888 8.57933 25.6235 8.45398C25.9253 8.13799 26.3365 7.94792 26.7738 7.9219H27.2635C27.4806 7.91432 27.6914 7.99497 27.8476 8.1452C28.0038 8.29542 28.092 8.50239 28.0918 8.71866V9.65477C28.0918 9.87649 28.0034 10.0891 27.8459 10.2457C27.6885 10.4026 27.4749 10.4906 27.2522 10.4906H26.5918C26.3798 10.4906 26.186 10.6097 26.091 10.7986C25.9964 10.9873 26.0168 11.2131 26.1439 11.382C26.2074 11.4656 26.2682 11.5501 26.3259 11.6356C26.9087 12.5251 27.202 13.5721 27.1655 14.6333V21.161C27.1655 21.3752 27.08 21.5808 26.9277 21.7321C26.7755 21.8837 26.5692 21.9689 26.3539 21.9689H24.5936C24.3783 21.9689 24.1719 21.8837 24.0197 21.7321C23.8676 21.5808 23.7821 21.3752 23.7821 21.161V20.1357C23.7821 19.988 23.723 19.8461 23.6182 19.7418C23.5132 19.6372 23.3708 19.5786 23.2223 19.5786H7.77439C7.46518 19.5786 7.21454 19.8279 7.21454 20.1357V21.161C7.21454 21.3752 7.12903 21.5808 6.97696 21.7321C6.8247 21.8837 6.61836 21.9688 6.40306 21.9688H4.62604C4.41073 21.9688 4.20439 21.8837 4.05215 21.7321C3.89988 21.5808 3.81438 21.3752 3.81438 21.161V14.6249C3.77963 13.5673 4.07284 12.5244 4.65399 11.6383C4.71177 11.5528 4.77248 11.4684 4.83592 11.3847C4.963 11.2158 4.98351 10.99 4.88882 10.8013C4.79395 10.6126 4.60011 10.4933 4.38809 10.4933H4.30982L3.7445 10.4849C3.52177 10.4849 3.30822 10.3969 3.15087 10.2401C2.99334 10.0834 2.9049 9.87081 2.9049 9.64907L2.90502 8.71867Z" fill="#CEDCEF"/>
<path d="M23.4687 13.2071C23.5944 13.3025 23.668 13.4507 23.6675 13.6081V14.2628C23.6659 14.5408 23.44 14.7656 23.1608 14.7672H20.6423C20.3835 14.7727 20.1619 14.5829 20.129 14.3274C20.0957 14.0716 20.2616 13.8324 20.5134 13.7725L23.032 13.1179C23.074 13.1068 23.1173 13.1011 23.1608 13.1011C23.2724 13.1016 23.3807 13.1388 23.4687 13.2071ZM7.83883 15.8815H10.3576C10.8915 15.8848 11.3932 15.6267 11.6995 15.1912C12.0058 14.7557 12.0776 14.1984 11.892 13.6999C11.7061 13.2013 11.2864 12.8256 10.7689 12.6944L8.25034 12.0396C7.76251 11.9116 7.24287 12.0163 6.84348 12.3228C6.44388 12.6295 6.21001 13.1033 6.21022 13.6052V14.2599C6.21022 14.69 6.3818 15.1024 6.68731 15.4065C6.99262 15.7106 7.407 15.8815 7.83883 15.8815ZM7.33224 13.6052C7.33224 13.449 7.40526 13.3015 7.5296 13.206C7.65395 13.1106 7.81578 13.078 7.96766 13.1178L10.4862 13.7725C10.7381 13.8324 10.904 14.0716 10.871 14.3274C10.8378 14.5829 10.6164 14.7725 10.3576 14.7672H7.83883C7.55987 14.7656 7.33384 14.5408 7.33244 14.2628L7.33224 13.6052ZM22.7467 12.0396L20.228 12.6944C19.7102 12.8256 19.2902 13.2018 19.1046 13.7007C18.9192 14.1995 18.9916 14.7575 19.2987 15.1928C19.6055 15.6283 20.1078 15.8856 20.6423 15.8815H23.161C23.5919 15.8807 24.0051 15.7099 24.3098 15.4065C24.6147 15.1032 24.786 14.692 24.7868 14.2628V13.6052C24.787 13.1033 24.5532 12.6295 24.1535 12.3228C23.7541 12.0163 23.2344 11.9116 22.7467 12.0396ZM8.22223 9.95849H22.7746C22.9603 9.95869 23.1338 9.86715 23.2382 9.71421C23.3424 9.56127 23.3637 9.36674 23.295 9.19512C22.822 8.0056 21.8957 5.81018 21.42 5.13313C21.0786 4.64554 20.5804 4.38648 19.724 4.23609C18.3258 4.02737 16.9119 3.93856 15.4982 3.97141C14.0885 3.93856 12.6784 4.02601 11.2837 4.23317C10.4189 4.38359 9.92913 4.64264 9.58766 5.13315C9.11467 5.81019 8.1884 8.00542 7.71264 9.19514C7.64471 9.36499 7.66482 9.55719 7.76633 9.70955C7.86803 9.86191 8.03854 9.95499 8.22223 9.95849ZM10.4974 5.7795C10.5813 5.65687 10.7102 5.47302 11.4686 5.34203C12.8021 5.14265 14.1503 5.05695 15.4986 5.08571C16.8437 5.05442 18.1891 5.13741 19.52 5.33369C20.2757 5.46467 20.4044 5.64851 20.4883 5.76823C21.0423 6.75427 21.5248 7.77842 21.9323 8.83293H9.06203C9.47003 7.77961 9.95257 6.75646 10.5062 5.77115L10.4974 5.7795ZM3.4116 11.5604C2.91947 12.5061 2.67508 13.5602 2.70063 14.625V21.1611C2.7014 21.6706 2.90521 22.1592 3.26713 22.5195C3.62905 22.8799 4.11978 23.0827 4.63166 23.0833H6.40318C6.91502 23.0827 7.40576 22.8799 7.76771 22.5195C8.12983 22.1593 8.33342 21.6707 8.33422 21.1611V20.693H22.6627V21.1611C22.6635 21.6706 22.8671 22.1592 23.2292 22.5195C23.5911 22.8799 24.0819 23.0827 24.5938 23.0833H26.368C26.8798 23.0827 27.3706 22.8799 27.7325 22.5195C28.0947 22.1593 28.2982 21.6707 28.299 21.1611V14.6419C28.324 13.5773 28.0796 12.5234 27.5883 11.5773C28.0386 11.4994 28.4474 11.267 28.7439 10.9205C29.0403 10.574 29.2055 10.1352 29.2112 9.68005V8.67709C29.1994 8.18522 28.9981 7.71686 28.6492 7.36841C28.3002 7.01997 27.8303 6.81822 27.3363 6.80483H26.8045C26.3528 6.81417 25.9112 6.9399 25.5229 7.16981C25.0472 6.03042 24.2888 4.31131 23.7459 3.53123C22.7106 2.05197 21.2274 1.64227 20.2115 1.46407C18.6527 1.2225 17.0756 1.11718 15.4984 1.14925C13.9253 1.11504 12.352 1.21746 10.797 1.45571C9.7755 1.63411 8.29522 2.04088 7.25962 3.52288C6.71675 4.30296 5.95835 6.03018 5.4826 7.16145C5.09239 6.93117 4.64864 6.80543 4.19518 6.79649H3.6718C3.17441 6.80718 2.70041 7.00889 2.34884 7.35926C1.99747 7.70984 1.79564 8.18187 1.78564 8.67704V9.68C1.79521 10.1326 1.9627 10.5677 2.25942 10.9109C2.55594 11.2539 2.96338 11.4834 3.4116 11.5604ZM2.90502 8.71867C2.90502 8.5084 2.98857 8.30648 3.13751 8.15725C3.28626 8.008 3.4885 7.92346 3.69971 7.9219H4.18111C4.6213 7.946 5.03555 8.13645 5.33969 8.45398C5.47439 8.57933 5.66257 8.63082 5.84254 8.59118C6.02271 8.55173 6.17166 8.42638 6.24096 8.25614C7.02179 6.32539 7.7634 4.75966 8.1747 4.17176C8.96098 3.05746 10.0889 2.72299 10.9732 2.56693C12.4651 2.34441 13.9736 2.25133 15.4816 2.28864C16.9896 2.25133 18.4982 2.34461 19.99 2.56712C20.8856 2.72318 22.0133 3.04635 22.7885 4.17195C23.1998 4.76254 23.9414 6.32559 24.7222 8.25633C24.7916 8.42657 24.9405 8.55173 25.1207 8.59118C25.3006 8.63082 25.4888 8.57933 25.6235 8.45398C25.9253 8.13799 26.3365 7.94792 26.7738 7.9219H27.2635C27.4806 7.91432 27.6914 7.99497 27.8476 8.1452C28.0038 8.29542 28.092 8.50239 28.0918 8.71866V9.65477C28.0918 9.87649 28.0034 10.0891 27.8459 10.2457C27.6885 10.4026 27.4749 10.4906 27.2522 10.4906H26.5918C26.3798 10.4906 26.186 10.6097 26.091 10.7986C25.9964 10.9873 26.0168 11.2131 26.1439 11.382C26.2074 11.4656 26.2682 11.5501 26.3259 11.6356C26.9087 12.5251 27.202 13.5721 27.1655 14.6333V21.161C27.1655 21.3752 27.08 21.5808 26.9277 21.7321C26.7755 21.8837 26.5692 21.9689 26.3539 21.9689H24.5936C24.3783 21.9689 24.1719 21.8837 24.0197 21.7321C23.8676 21.5808 23.7821 21.3752 23.7821 21.161V20.1357C23.7821 19.988 23.723 19.8461 23.6182 19.7418C23.5132 19.6372 23.3708 19.5786 23.2223 19.5786H7.77439C7.46518 19.5786 7.21454 19.8279 7.21454 20.1357V21.161C7.21454 21.3752 7.12903 21.5808 6.97696 21.7321C6.8247 21.8837 6.61836 21.9688 6.40306 21.9688H4.62604C4.41073 21.9688 4.20439 21.8837 4.05215 21.7321C3.89988 21.5808 3.81438 21.3752 3.81438 21.161V14.6249C3.77963 13.5673 4.07284 12.5244 4.65399 11.6383C4.71177 11.5528 4.77248 11.4684 4.83592 11.3847C4.963 11.2158 4.98351 10.99 4.88882 10.8013C4.79395 10.6126 4.60011 10.4933 4.38809 10.4933H4.30982L3.7445 10.4849C3.52177 10.4849 3.30822 10.3969 3.15087 10.2401C2.99334 10.0834 2.9049 9.87081 2.9049 9.64907L2.90502 8.71867Z" stroke="#CEDCEF" stroke-width="0.599935"/>
</svg>
