<svg width="33" height="32" viewBox="0 0 33 32" fill="none" xmlns="http://www.w3.org/2000/svg">
<path d="M28.5001 2.66675L25.8335 5.33341M25.8335 5.33341L29.8335 9.33341L25.1668 14.0001L21.1668 10.0001M25.8335 5.33341L21.1668 10.0001M15.6868 15.4801C16.3752 16.1594 16.9225 16.9681 17.2971 17.8598C17.6717 18.7515 17.8663 19.7084 17.8695 20.6756C17.8727 21.6427 17.6846 22.601 17.316 23.4952C16.9474 24.3893 16.4055 25.2017 15.7216 25.8856C15.0378 26.5695 14.2254 27.1113 13.3312 27.48C12.437 27.8486 11.4788 28.0367 10.5116 28.0335C9.54448 28.0302 8.58751 27.8357 7.69584 27.4611C6.80417 27.0865 5.99541 26.5392 5.31612 25.8507C3.9803 24.4677 3.24114 22.6153 3.25785 20.6925C3.27455 18.7697 4.04579 16.9304 5.40545 15.5707C6.76511 14.2111 8.6044 13.4398 10.5272 13.4231C12.45 13.4064 14.3024 14.1456 15.6855 15.4814L15.6868 15.4801ZM15.6868 15.4801L21.1668 10.0001" stroke="#CEDCEF" stroke-width="2" stroke-linecap="round" stroke-linejoin="round"/>
</svg>
