<svg width="33" height="32" viewBox="0 0 33 32" fill="none" xmlns="http://www.w3.org/2000/svg">
<g clip-path="url(#clip0_64_311)">
<path d="M16.5 20C18.7091 20 20.5 18.2091 20.5 16C20.5 13.7909 18.7091 12 16.5 12C14.2909 12 12.5 13.7909 12.5 16C12.5 18.2091 14.2909 20 16.5 20Z" stroke="#CEDCEF" stroke-width="2" stroke-linecap="round" stroke-linejoin="round"/>
<path d="M26.3666 19.9999C26.1891 20.4021 26.1362 20.8482 26.2146 21.2807C26.293 21.7132 26.4992 22.1123 26.8066 22.4266L26.8866 22.5066C27.1345 22.7542 27.3312 23.0484 27.4654 23.3721C27.5996 23.6958 27.6687 24.0428 27.6687 24.3933C27.6687 24.7437 27.5996 25.0907 27.4654 25.4144C27.3312 25.7382 27.1345 26.0323 26.8866 26.2799C26.6389 26.5279 26.3448 26.7245 26.0211 26.8587C25.6974 26.9929 25.3504 27.062 24.9999 27.062C24.6495 27.062 24.3025 26.9929 23.9787 26.8587C23.655 26.7245 23.3609 26.5279 23.1133 26.2799L23.0333 26.1999C22.719 25.8925 22.3199 25.6863 21.8874 25.6079C21.4548 25.5295 21.0087 25.5824 20.6066 25.7599C20.2122 25.9289 19.8759 26.2096 19.639 26.5673C19.4021 26.925 19.275 27.3442 19.2733 27.7733V27.9999C19.2733 28.7072 18.9923 29.3854 18.4922 29.8855C17.9921 30.3856 17.3138 30.6666 16.6066 30.6666C15.8993 30.6666 15.2211 30.3856 14.721 29.8855C14.2209 29.3854 13.9399 28.7072 13.9399 27.9999V27.8799C13.9296 27.4386 13.7867 27.0106 13.5299 26.6515C13.2731 26.2925 12.9142 26.019 12.4999 25.8666C12.0978 25.6891 11.6517 25.6362 11.2191 25.7146C10.7866 25.793 10.3875 25.9992 10.0733 26.3066L9.99325 26.3866C9.74559 26.6345 9.45149 26.8312 9.12776 26.9654C8.80403 27.0996 8.45703 27.1687 8.10659 27.1687C7.75614 27.1687 7.40914 27.0996 7.08541 26.9654C6.76168 26.8312 6.46758 26.6345 6.21992 26.3866C5.97198 26.1389 5.77529 25.8448 5.64109 25.5211C5.50689 25.1974 5.43782 24.8504 5.43782 24.4999C5.43782 24.1495 5.50689 23.8025 5.64109 23.4787C5.77529 23.155 5.97198 22.8609 6.21992 22.6133L6.29992 22.5333C6.6073 22.219 6.8135 21.8199 6.89192 21.3874C6.97035 20.9548 6.91741 20.5087 6.73992 20.1066C6.5709 19.7122 6.29026 19.3759 5.93254 19.139C5.57482 18.9021 5.15563 18.775 4.72659 18.7733H4.49992C3.79267 18.7733 3.1144 18.4923 2.6143 17.9922C2.1142 17.4921 1.83325 16.8138 1.83325 16.1066C1.83325 15.3993 2.1142 14.7211 2.6143 14.221C3.1144 13.7209 3.79267 13.4399 4.49992 13.4399H4.61992C5.06124 13.4296 5.48926 13.2867 5.84832 13.0299C6.20738 12.7731 6.48087 12.4142 6.63325 11.9999C6.81074 11.5978 6.86368 11.1517 6.78526 10.7191C6.70683 10.2866 6.50063 9.88749 6.19325 9.57325L6.11325 9.49325C5.86531 9.24559 5.66862 8.95149 5.53443 8.62776C5.40023 8.30403 5.33115 7.95703 5.33115 7.60659C5.33115 7.25614 5.40023 6.90914 5.53443 6.58541C5.66862 6.26168 5.86531 5.96758 6.11325 5.71992C6.36091 5.47198 6.65502 5.27529 6.97874 5.14109C7.30247 5.00689 7.64948 4.93782 7.99992 4.93782C8.35036 4.93782 8.69736 5.00689 9.02109 5.14109C9.34482 5.27529 9.63892 5.47198 9.88659 5.71992L9.96659 5.79992C10.2808 6.1073 10.6799 6.3135 11.1125 6.39192C11.545 6.47035 11.9911 6.41741 12.3933 6.23992H12.4999C12.8943 6.0709 13.2306 5.79026 13.4675 5.43254C13.7044 5.07482 13.8315 4.65563 13.8333 4.22659V3.99992C13.8333 3.29267 14.1142 2.6144 14.6143 2.1143C15.1144 1.6142 15.7927 1.33325 16.4999 1.33325C17.2072 1.33325 17.8854 1.6142 18.3855 2.1143C18.8856 2.6144 19.1666 3.29267 19.1666 3.99992V4.11992C19.1683 4.54897 19.2954 4.96815 19.5323 5.32587C19.7692 5.68359 20.1056 5.96423 20.4999 6.13325C20.9021 6.31074 21.3482 6.36368 21.7807 6.28526C22.2132 6.20683 22.6123 6.00063 22.9266 5.69325L23.0066 5.61325C23.2542 5.36531 23.5484 5.16862 23.8721 5.03443C24.1958 4.90023 24.5428 4.83115 24.8933 4.83115C25.2437 4.83115 25.5907 4.90023 25.9144 5.03443C26.2382 5.16862 26.5323 5.36531 26.7799 5.61325C27.0279 5.86091 27.2245 6.15502 27.3587 6.47874C27.4929 6.80247 27.562 7.14948 27.562 7.49992C27.562 7.85036 27.4929 8.19736 27.3587 8.52109C27.2245 8.84482 27.0279 9.13892 26.7799 9.38659L26.6999 9.46659C26.3925 9.78082 26.1863 10.1799 26.1079 10.6125C26.0295 11.045 26.0824 11.4911 26.2599 11.8933V11.9999C26.4289 12.3943 26.7096 12.7306 27.0673 12.9675C27.425 13.2044 27.8442 13.3315 28.2733 13.3333H28.4999C29.2072 13.3333 29.8854 13.6142 30.3855 14.1143C30.8856 14.6144 31.1666 15.2927 31.1666 15.9999C31.1666 16.7072 30.8856 17.3854 30.3855 17.8855C29.8854 18.3856 29.2072 18.6666 28.4999 18.6666H28.3799C27.9509 18.6683 27.5317 18.7954 27.174 19.0323C26.8162 19.2692 26.5356 19.6056 26.3666 19.9999Z" stroke="#CEDCEF" stroke-width="2" stroke-linecap="round" stroke-linejoin="round"/>
</g>
<defs>
<clipPath id="clip0_64_311">
<rect width="32" height="32" fill="white" transform="translate(0.5)"/>
</clipPath>
</defs>
</svg>
